PathFileType	4	(X/Y/Z)	Patient4_TMGait_0pt5_01_right_39.trc.trc
DataRate	CameraRate	NumFrames	NumMarkers	Units	OrigDataRate	OrigDataStartFrame	OrigNumFrames
74.866310160428	74.866310160428	4	33	mm	74.866310160428	89	       141
Frame#	Time	L.ASIS			Sacral			L.Shoulder			Chest			R.Shoulder			Neck			R.ASIS			R.Thigh.Superior			R.Thigh.Lateral			R.Thigh.Inferior			R.Patella			L.Thigh.Superior			L.Thigh.Lateral			L.Thigh.Inferior			L.Patella			L.Shank.Superior			L.Shank.Lateral			L.Shank.Inferior			R.Shank.Superior			R.Shank.Lateral			R.Shank.Inferior			R.Heel			R.Midfoot.Superior			R.Midfoot.Lateral			R.Toe			L.Heel			L.Midfoot.Lateral			L.Midfoot.Superior			L.Toe			L.Elbow			L.Wrist			R.Elbow			R.Wrist			
		X1	Y1	Z1	X2	Y2	Z2	X3	Y3	Z3	X4	Y4	Z4	X5	Y5	Z5	X6	Y6	Z6	X7	Y7	Z7	X8	Y8	Z8	X9	Y9	Z9	X10	Y10	Z10	X11	Y11	Z11	X12	Y12	Z12	X13	Y13	Z13	X14	Y14	Z14	X15	Y15	Z15	X16	Y16	Z16	X17	Y17	Z17	X18	Y18	Z18	X19	Y19	Z19	X20	Y20	Z20	X21	Y21	Z21	X22	Y22	Z22	X23	Y23	Z23	X24	Y24	Z24	X25	Y25	Z25	X26	Y26	Z26	X27	Y27	Z27	X28	Y28	Z28	X29	Y29	Z29	X30	Y30	Z30	X31	Y31	Z31	X32	Y32	Z32	X33	Y33	Z33	

89	52.495428571429	790.061480576678	963.101434082014	313.676950580855	581.501980662295	1006.024890269375	480.517076389303	730.247390305675	1437.282482481986	298.639567328674	846.906854624562	1370.520175865891	451.418463609467	772.792375735352	1438.129933161863	632.936453655833	737.795973773628	1497.112223237226	450.343260605056	812.410269453031	942.155198270537	586.371289076379	836.121759746087	733.077161211324	569.943568131846	747.259434439319	630.946173045717	635.316352540659	823.077278751028	566.318869648331	562.843585269571	810.089417666483	461.807193620651	582.459076485447	855.551045528202	761.446748114081	347.559325437210	780.110782416836	636.620737001184	288.764779224075	873.773241207597	567.946292033144	350.878068749731	881.724550072948	496.581449764465	360.273807682318	857.581864526717	422.579294701017	353.457469479017	773.142565006364	304.205524181793	304.062555378962	829.295319377864	195.735702789103	374.466089704012	740.421005045034	391.518852497074	587.545566852220	625.637695639496	335.749926839615	646.207938195210	626.190260589270	226.491140768141	594.150890224837	433.801652022763	125.419547061520	563.750440819133	610.916011344446	110.414694529965	603.657461531143	505.150584793389	79.573631301981	634.890826917053	700.327028703460	33.662622827463	625.296010989563	707.003088154551	37.419941986286	416.910024217772	780.406934288576	35.325928549658	335.398583483284	863.438542640420	96.877326131492	361.138867758107	991.714329292884	45.803843892458	331.884196123012	686.974226130937	1079.222531522686	190.720545406954	759.654246556008	828.600731937306	184.147157049324	802.781296109764	1088.591376383232	744.164212784796	998.198439716818	920.410673481733	722.209987240876	
90	52.508785714286	790.250491168405	963.405557347473	311.060949443078	580.902048710808	1006.254458611789	477.024418731035	731.380918391123	1437.795147687800	295.638362211417	846.844752232664	1370.898455773176	449.233613546939	771.468171020853	1438.398224752970	630.264079273822	737.728191018032	1497.517673046648	447.440951543398	811.297625537833	942.871759684498	583.817870952692	839.893735611336	735.128525418822	567.895682185142	754.046514825370	631.430078033234	633.991011666029	831.693421425612	567.935857972525	561.656993986661	820.139796081576	462.078200432351	582.444316800413	854.190689002320	760.620175808171	345.115524464528	777.534293147029	636.512951125700	286.699039121540	870.191976695298	567.102498050466	349.197181052090	877.401381011109	495.811228496138	358.928458547707	853.005296464917	421.907525158388	352.206540096221	768.187112533107	303.784403043988	302.919205580716	823.372762488476	195.306213689264	374.000867645674	748.513645678656	392.548452008250	587.559201787012	631.918716593959	340.681315092031	646.233158516375	629.253461119486	231.204494207674	594.997896080161	433.944885499715	138.791164495642	565.087133267227	609.678843854010	113.799506214230	604.597860587871	502.668829484919	88.560432741964	635.787226797693	694.148223946858	32.736242596120	625.584258306534	700.269335593824	37.393926904850	416.836957183263	773.680452546058	35.241859906199	335.311315793147	856.803956676870	96.688654403586	361.115715621811	985.091931642326	45.379638939716	331.902102181668	694.355557250545	1079.637455239418	185.138386452475	777.360344831181	832.056441853175	178.292708444280	794.603628652378	1088.260067947797	741.436544668041	978.018227165738	906.172477408824	721.156774601619	
91	52.522142857143	790.357717986788	963.552644306862	308.634631690481	580.127169424709	1006.310610893691	473.631435896086	732.481529099755	1438.075998993049	292.701565792643	846.703666937175	1371.079343932920	447.171186504236	770.016544166486	1438.523698491541	627.673239881594	737.629811803536	1497.766826168100	444.572468024772	810.034143091828	943.463066309597	581.538293403373	843.848260328712	737.420153057095	565.815485588214	761.322985329201	632.045529724998	632.628327841966	840.738256723441	569.890844258748	560.277468176624	830.778710754697	462.731985301958	582.001473149326	852.804010687417	759.774251417855	342.744844182647	774.942294310825	636.388465644112	284.676812196974	866.657291953717	566.259310459131	347.488317964659	873.142532507379	495.033945829559	357.539698956070	848.485434844980	421.213848351103	350.936094595200	763.267467147180	303.353937016908	301.770020521477	817.498765053288	194.864397234802	373.501482589863	757.296335914060	393.856735100021	587.240856032709	639.115350411620	345.894700727743	646.114492552642	633.083245893631	236.368174134478	595.584072686574	435.216947497126	152.955971833046	566.297105765367	609.127773291309	117.901869687326	605.360754983896	501.091428607193	98.503736617194	636.616599425948	688.414886369171	31.819783474784	625.865769453809	693.558124760889	37.377625463734	416.752552367912	766.974882446217	35.164796367882	335.212822211956	850.191544220456	96.503556142972	361.074548749478	978.489140406386	44.957152859164	331.906551652977	701.952081637287	1080.032991093481	179.449060186726	795.312513514282	835.976253396485	172.414339022365	786.095085328310	1087.896928103457	738.676708892301	956.538438391407	892.766396585184	720.228885268669	
92	52.535500000000	790.387477526242	963.581971988986	306.424699434910	579.184564276211	1006.232858549602	470.352720656087	733.533209562568	1438.154320754653	289.855167855020	846.480799505881	1371.099889654226	445.250874099667	768.439257124500	1438.545500077653	625.182541495320	737.504242917218	1497.892195278802	441.762825186643	808.631730952479	943.940995086954	579.547395182901	847.876766788560	739.984259324947	563.703459997781	768.928358408270	632.871010947701	631.208144291150	850.021911609498	572.240932965001	558.703398603208	841.834031188581	463.837083548471	581.130421873575	851.392176668222	758.924157213886	340.428103552777	772.299080422398	636.250447198191	282.726823859694	863.150385185369	565.418268478920	345.763371346166	868.932752182262	494.259959064464	356.135901130633	844.005117981315	420.514482415586	349.673547097889	758.365584767296	302.933064338375	300.639600260910	811.662102589261	194.423939384533	372.981205033143	766.614690950544	395.498504797069	586.573890134953	647.082086150653	351.345925608230	645.806801682960	637.637504499864	241.925053460885	595.856705497368	437.625534351537	167.536439826573	567.305757038599	609.378856796686	122.699239408052	605.893895091609	500.548227688609	109.144725940404	637.303751820379	683.394737774942	31.054747942393	626.054784269668	686.867593072342	37.373101806256	416.658033420783	760.287705711570	35.097262420985	335.104963247558	843.596650422536	96.327603836888	361.013561561000	971.900502886585	44.546970081320	331.894331092388	709.767312485344	1080.435165649752	173.725415664354	813.386396800928	840.364596733273	166.568941220868	777.202752008598	1087.553584799584	735.908118884045	933.889221249089	880.423724390618	719.427043684916	
